<?xml version="1.0" encoding="utf-8"?>
<!-- Svg Vector Icons : http://www.onlinewebfonts.com/icon -->
<!DOCTYPE svg PUBLIC "-//W3C//DTD SVG 1.1//EN" "http://www.w3.org/Graphics/SVG/1.1/DTD/svg11.dtd">
<svg version="1.1" xmlns="http://www.w3.org/2000/svg" xmlns:xlink="http://www.w3.org/1999/xlink" x="0px" y="0px" viewBox="0 0 1000 1000" enable-background="new 0 0 1000 1000" xml:space="preserve">
<metadata> Svg Vector Icons : http://www.onlinewebfonts.com/icon </metadata>
<g><path d="M203.4,461.7H100c-49.6,0-90,40.4-90,90v350.6c0,49.6,40.4,90,90,90h103.4c49.6,0,90-40.4,90-90V551.7C293.3,502.1,253,461.7,203.4,461.7z M259.4,902.3c0,30.9-25.2,56.1-56.1,56.1H100c-30.9,0-56.1-25.2-56.1-56.1V551.7c0-30.9,25.2-56.1,56.1-56.1h103.4c30.9,0,56.1,25.2,56.1,56.1V902.3z"/><path d="M544.9,232.5H441.6c-49.6,0-90,40.4-90,90v579.8c0,49.6,40.4,90,90,90h103.4c49.6,0,90-40.4,90-90V322.5C634.9,272.9,594.6,232.5,544.9,232.5z M601,902.3c0,30.9-25.2,56.1-56.1,56.1H441.6c-30.9,0-56.1-25.2-56.1-56.1V322.5c0-30.9,25.2-56.1,56.1-56.1h103.4c30.9,0,56.1,25.2,56.1,56.1V902.3z"/><path d="M900,7.8H796.6c-49.6,0-90,40.4-90,90v804.5c0,49.6,40.4,90,90,90H900c49.6,0,90-40.4,90-90V97.7C990,48.1,949.6,7.8,900,7.8z M956.1,902.3c0,30.9-25.2,56.1-56.1,56.1H796.6c-30.9,0-56.1-25.2-56.1-56.1V97.7c0-30.9,25.2-56.1,56.1-56.1H900c30.9,0,56.1,25.2,56.1,56.1V902.3z"/></g>
</svg>